Plot

A couple are looking for their child who was lost in the tsunami - their search takes
them to the dangerous Thai-Burmese waters, and then into the jungle, where they face
unknown but horrifying dangers.


 
http://www.imdb.com/title/tt1029241/



General
Complete name : Vinyan 2008 DVDRip Xvid BigPerm LKRGV_LKRG.avi
Format : AVI
Format/Info : Audio Video Interleave
Format profile : OpenDML
File size : 1.03 GiB
Duration : 1h 36mn
Overall bit rate : 1 534 Kbps

Video
ID : 0
Format : MPEG-4 Visual
Format profile : Advanced Simple@L5
Format settings, BVOP : Yes
Format settings, QPel : No
Format settings, GMC : No warppoints
Format settings, Matrix : Default (H.263)
Codec ID : XVID
Codec ID/Hint : XviD
Duration : 1h 36mn
Bit rate : 58.3 Kbps
Width : 704 pixels
Height : 396 pixels
Display aspect ratio : 16:9
Frame rate : 23.976 fps
Color space : YUV
Chroma subsampling : 4:2:0
Bit depth : 8 bits
Scan type : Progressive
Compression mode : Lossy
Bits/(Pixel*Frame) : 0.009
Stream size : 40.2 MiB (4%)
Writing library : XviD 1.2.1 (UTC 2008-12-04)

Audio
ID : 1
Format : AC-3
Format/Info : Audio Coding 3
Codec ID : 2000
Duration : 1h 36mn
Bit rate mode : Constant
Bit rate : 448 Kbps
Channel(s) : 6 channels
Sampling rate : 48.0 KHz
Bit depth : 16 bits
Compression mode : Lossy
Stream size : 309 MiB (29%)
Alignment : Aligned on interleaves
Language : English






================================== 
http://thepiratebay.org/user/hiest
==================================






Screenshots:
 
http://leetleech.org/images/97813910060724616940.png
 
http://leetleech.org/images/58641793011621933672.png
 
http://leetleech.org/images/38312427176166604326.png
 
http://leetleech.org/images/86887707866808678437.png

